HIERARCHY
ROOT Hips
{
	OFFSET 0.00000 0.00000 0.00000
	CHANNELS 6 Xposition Yposition Zposition Yrotation Zrotation Xrotation 
	JOINT Lumbar
	{
		OFFSET 0 0 0
		CHANNELS 3 Zrotation Xrotation Yrotation
		JOINT Neck
		{
			OFFSET 0.00 0.2701 0.00
			CHANNELS 3 Zrotation Xrotation Yrotation
			End Site
			{
				OFFSET 0.00 0.1379 0.00
			}
		}
		JOINT RightShoulder
		{
			OFFSET 0.0119 0.2289 0.1181
			CHANNELS 3 Zrotation Xrotation Yrotation
			JOINT RightElbow
			{
				OFFSET 0.00 -0.1475 0.00
				CHANNELS 2 Zrotation Yrotation
				JOINT RightWrist
				{
					OFFSET 0.00 -0.1605 0.00
					CHANNELS 2 Zrotation Xrotation
					End Site
					{
						OFFSET 0.0040 -0.1068 0.0006
					}
				}
			}
		}
		JOINT LeftShoulder
		{
			OFFSET 0.0119 0.2289 -0.1181
			CHANNELS 3 Zrotation Xrotation Yrotation
			JOINT LeftElbow
			{
				OFFSET 0.00 -0.1475 0.00
				CHANNELS 2 Zrotation Yrotation
				JOINT LeftWrist
				{
					OFFSET 0.00 -0.1605 0.00
					CHANNELS 2 Zrotation Xrotation
					End Site
					{
						OFFSET 0.0040 -0.1068 -0.0006
					}
				}
			}
		}
	}
	JOINT RightHip
	{
		OFFSET 0.0316 -0.0424 0.0458
		CHANNELS 3 Zrotation Xrotation Yrotation
		JOINT RightKnee
		{
			OFFSET 0.00 -0.2438 0.00
			CHANNELS 1 Zrotation
			JOINT RightAnkle
			{
				OFFSET 0.00 -0.2449 0.00
				CHANNELS 3 Zrotation Xrotation Yrotation
				End Site
				{
					OFFSET 0.1237 -0.0542 0.0051
				}
			}
		}
	}
	JOINT LeftHip
	{
		OFFSET 0.0316 -0.0424 -0.0458
		CHANNELS 3 Zrotation Xrotation Yrotation
		JOINT LeftKnee
		{
			OFFSET 0.00 -0.2438 0.00
			CHANNELS 1 Zrotation
			JOINT LeftAnkle
			{
				OFFSET 0.00 -0.2449 0.00
				CHANNELS 3 Zrotation Xrotation Yrotation
				End Site
				{
					OFFSET 0.1237 -0.0542 -0.0051
				}
			}
		}
	}
}
MOTION
Frames: 25
Frame Time: 0.02
-0.00396 -0.00116 0.00178 23.69314 -17.33849 -4.25674 39.90498 -0.32181 -8.13843 -10.89701 4.31969 -1.10037 -11.23324 -7.23395 -26.82568 20.28505 117.96049 12.54346 6.06798 -21.85383 7.30552 -1.36578 29.85165 -81.68013 6.91573 1.45303 33.25272 -2.09896 -3.14902 -21.32329 -6.48019 -3.17748 -3.82113 34.89811 4.3302 7.27399 -25.42308 -6.40765 2.49975 3.4651
-0.00335 -0.00098 0.0016 23.75274 -17.25499 -4.29711 40.04504 -0.33414 -8.26352 -11.06852 4.32004 -1.10212 -11.72937 -7.08505 -27.10392 20.31994 118.29189 12.70012 6.09777 -22.08802 7.15372 -0.78809 29.90111 -86.39266 8.62816 0.73906 32.99244 -2.15085 -3.66966 -21.30434 -6.43053 -3.16955 -3.80838 34.71466 4.33465 7.06021 -25.38409 -6.41907 2.5235 3.47412
-0.00273 -0.0008 0.00142 23.81226 -17.17161 -4.33735 40.18489 -0.34648 -8.38825 -11.2398 4.32042 -1.10386 -12.22513 -6.93691 -27.37903 20.35525 118.61592 12.85483 6.12636 -22.32168 7.00257 -0.21274 29.95056 -91.0851 10.33345 0.02818 32.73257 -2.20262 -4.18904 -21.28544 -6.38098 -3.16164 -3.79565 34.53141 4.3392 6.84755 -25.34518 -6.43044 2.54713 3.48309
-0.00212 -0.00061 0.00123 23.87169 -17.08836 -4.37759 40.32456 -0.35878 -8.51297 -11.41081 4.32077 -1.1056 -12.71991 -6.78853 -27.65602 20.39009 118.94502 13.0107 6.15585 -22.55517 6.85127 0.36305 29.99988 -95.78203 12.04024 -0.68341 32.47303 -2.25435 -4.7081 -21.26655 -6.33146 -3.15373 -3.78294 34.34848 4.34365 6.63449 -25.3063 -6.44182 2.5708 3.49207
-0.00151 -0.00043 0.00105 23.93118 -17.005 -4.41795 40.46436 -0.37104 -8.63802 -11.58198 4.32109 -1.10734 -13.21465 -6.63923 -27.93707 20.42437 119.28452 13.16928 6.18707 -22.78913 6.69924 0.94148 30.04918 -100.50166 13.75506 -1.39851 32.21319 -2.30621 -5.22838 -21.24763 -6.28183 -3.1458 -3.77018 34.16543 4.34797 6.42015 -25.26738 -6.45327 2.59459 3.50112
-0.00089 -0.00025 0.00087 23.99078 -16.92158 -4.45794 40.60429 -0.38356 -8.76207 -11.75352 4.32162 -1.10909 -13.71256 -6.49352 -28.19973 20.46186 119.57645 13.31598 6.21018 -23.02214 6.54995 1.51036 30.09895 -105.13703 15.44034 -2.10053 31.95326 -2.35778 -5.74591 -21.22876 -6.23246 -3.13793 -3.75754 33.98177 4.35302 6.21106 -25.22851 -6.46447 2.61788 3.50991
-0.00028 -6e-05 0.00069 24.05004 -16.83844 -4.49864 40.74381 -0.39553 -8.88804 -11.924 4.32168 -1.11083 -14.20343 -6.34086 -28.49884 20.49271 119.96189 13.48583 6.24929 -23.25678 6.39536 2.09759 30.14765 -109.93507 17.18256 -2.82782 31.69391 -2.40984 -6.26814 -21.20979 -6.18262 -3.12995 -3.74468 33.79963 4.35657 5.99161 -25.18955 -6.47616 2.64218 3.51921
0.00034 0.00012 0.0005 24.10969 -16.75493 -4.53868 40.88369 -0.40804 -9.01216 -12.09566 4.32224 -1.11257 -14.70097 -6.19441 -28.76484 20.52997 120.26454 13.63539 6.27419 -23.48998 6.24555 2.66831 30.19746 -114.58634 18.87347 -3.5323 31.43383 -2.46152 -6.78649 -21.19097 -6.13321 -3.12206 -3.73201 33.61592 4.36153 5.78177 -25.15071 -6.48739 2.66552 3.52803
0.00096 0.0003 0.00031 24.16957 -16.67137 -4.57793 41.02419 -0.4211 -9.13437 -12.26808 4.32314 -1.11431 -15.2064 -6.05633 -28.98808 20.57401 120.45131 13.75576 6.27939 -23.72129 6.10196 3.21734 30.24821 -119.04631 20.49727 -4.20708 31.17343 -2.51248 -7.29856 -21.1721 -6.08432 -3.11433 -3.7196 33.43085 4.36813 5.58342 -25.11183 -6.49811 2.68778 3.5363
0.00153 0.00049 0.00015 24.22741 -16.58927 -4.62179 41.16166 -0.43067 -9.26862 -12.43411 4.32129 -1.11608 -15.6657 -5.87243 -29.45041 20.57586 121.26058 14.03087 6.39091 -23.96307 5.92374 3.88665 30.29229 -124.57122 22.49399 -5.04728 30.91658 -2.56682 -7.84216 -21.15281 -6.03244 -3.10583 -3.70579 33.25523 4.36505 5.31818 -25.07263 -6.5119 2.71653 3.54786
0.00223 0.00067 -7e-05 24.28997 -16.50337 -4.65587 41.30514 -0.44779 -9.37679 -12.61488 4.32576 -1.11777 -16.22261 -5.78368 -29.413 20.66873 120.78541 13.9881 6.28269 -24.18301 5.81784 4.30509 30.35123 -127.87238 23.71246 -5.54201 30.65119 -2.61451 -8.32211 -21.13486 -5.98688 -3.09886 -3.6949 33.05871 4.38253 5.19453 -25.03448 -6.51914 2.73141 3.55242
0.00324 0.00083 -0.0004 24.3621 -16.41277 -4.66321 41.46884 -0.48414 -9.4179 -12.82657 4.3438 -1.11923 -17.04516 -5.97225 -27.9526 20.99345 116.50957 12.99193 5.5277 -24.34036 5.91861 4.00456 30.44411 -124.81977 22.70406 -5.04996 30.37054 -2.63977 -8.60098 -21.11674 -5.95882 -3.0968 -3.69242 32.81184 4.45569 5.45875 -24.996 -6.50866 2.70945 3.53803
0.0044 0.00099 -0.00079 24.43949 -16.31724 -4.66065 41.63805 -0.52826 -9.43166 -13.05506 4.36914 -1.12063 -17.96397 -6.25409 -26.00096 21.40995 110.99402 11.69066 4.56018 -24.47611 6.09054 3.45777 30.55267 -119.58024 20.93124 -4.21805 30.07979 -2.65902 -8.81972 -21.10051 -5.93719 -3.09618 -3.69283 32.54249 4.54942 5.86461 -24.95906 -6.49155 2.67343 3.51661
0.00551 0.00115 -0.00116 24.51686 -16.22033 -4.66257 41.80207 -0.56987 -9.45536 -13.28178 4.39325 -1.12206 -18.84297 -6.48168 -24.30658 21.79991 106.22739 10.58309 3.71851 -24.62371 6.22444 3.04364 30.65921 -115.50645 19.56768 -3.56717 29.78833 -2.68393 -9.0847 -21.08612 -5.91239 -3.09437 -3.69161 32.27912 4.63448 6.2069 -24.92367 -6.47733 2.6429 3.49818
0.00654 0.00131 -0.0015 24.58471 -16.13895 -4.6647 41.97673 -0.60753 -9.49079 -13.4828 4.40746 -1.12342 -19.71453 -6.7565 -22.4635 22.13812 100.67941 9.24627 2.75284 -24.76342 6.38221 2.54147 30.74638 -110.70491 17.94086 -2.80401 29.51923 -2.69702 -9.2744 -21.06099 -5.88819 -3.09461 -3.6916 32.03445 4.71761 6.54879 -24.87927 -6.46362 2.6157 3.48041
0.00776 0.00147 -0.00191 24.67303 -16.02371 -4.66386 42.13145 -0.65484 -9.49374 -13.74255 4.4454 -1.12495 -20.61312 -6.9589 -20.81887 22.59067 96.45951 8.30993 1.9951 -24.91354 6.50753 2.16426 30.87488 -106.8979 16.68185 -2.19338 29.20118 -2.73264 -9.60077 -21.05786 -5.86485 -3.09118 -3.68992 31.74442 4.80855 6.92172 -24.85339 -6.44727 2.57877 3.45984
0.00945 0.00164 -0.00249 24.8205 -15.82134 -4.65885 42.22061 -0.72975 -9.42726 -14.14673 4.53563 -1.12689 -21.65311 -6.90572 -19.81179 23.46797 96.2744 8.5962 1.86713 -25.10507 6.52194 2.19371 31.13938 -106.41056 16.62392 -2.09616 28.75381 -2.83793 -10.37074 -21.12277 -5.83716 -3.07496 -3.68148 31.34717 4.92542 7.37503 -24.88379 -6.42557 2.51379 3.43121
0.01133 0.00181 -0.00314 24.98682 -15.5856 -4.65087 42.29044 -0.81312 -9.32663 -14.60971 4.6518 -1.12907 -22.69593 -6.78286 -19.03532 24.43377 97.46469 9.28854 1.95713 -25.30621 6.50178 2.3573 31.44165 -106.99618 16.96362 -2.16322 28.25934 -2.96526 -11.27142 -21.20875 -5.81098 -3.05529 -3.67145 30.90502 5.04779 7.84987 -24.93194 -6.40146 2.44034 3.40037
0.01315 0.00199 -0.00378 25.14298 -15.35988 -4.64319 42.3761 -0.89135 -9.23259 -15.05763 4.76343 -1.13111 -23.68345 -6.71297 -18.16331 25.27128 97.97392 9.76713 1.94256 -25.49848 6.50014 2.45861 31.70784 -107.06236 17.12188 -2.14849 27.78117 -3.07826 -12.07765 -21.27942 -5.78761 -3.03889 -3.66318 30.47228 5.1614 8.2947 -24.96813 -6.37816 2.37385 3.3719
0.01488 0.00214 -0.00435 25.30945 -15.14958 -4.63964 42.4354 -0.97724 -9.17479 -15.46628 4.84404 -1.13305 -24.91937 -6.55506 -17.20202 26.47892 98.64494 10.35729 1.93578 -25.71007 6.48973 2.55667 32.04818 -107.17414 17.25434 -2.14953 27.31427 -3.20821 -13.02695 -21.37252 -5.75009 -3.01594 -3.6509 30.0757 5.30182 8.82703 -25.02004 -6.35558 2.29385 3.33749
0.01681 0.00233 -0.00507 25.45459 -14.907 -4.62687 42.54093 -1.04667 -9.03438 -15.95869 4.99615 -1.13556 -25.61599 -6.56439 -16.52926 26.94157 99.36107 10.81686 1.9774 -25.88264 6.48772 2.69685 32.25069 -107.48974 17.54768 -2.16426 26.82531 -3.30951 -13.71357 -21.42621 -5.74181 -3.00508 -3.6462 29.60533 5.38785 9.18394 -25.04434 -6.33135 2.24 3.31495
0.01949 0.00262 -0.00627 25.57275 -14.51769 -4.58956 42.81209 -1.08965 -8.66916 -16.76835 5.33231 -1.137 -25.00455 -7.03795 -16.22839 25.27332 99.49245 10.7984 2.00942 -25.95551 6.52533 2.91496 31.99477 -107.97208 18.16406 -2.1498 26.18217 -3.31453 -13.61078 -21.34866 -5.81849 -3.03474 -3.66618 28.84063 5.3185 9.01925 -24.98008 -6.30016 2.26198 3.32641
0.02231 0.00293 -0.0076 25.66198 -14.1094 -4.54306 43.12337 -1.11207 -8.22324 -17.64111 5.74074 -1.1395 -23.81611 -7.68433 -16.26936 22.86246 99.6678 10.63408 2.09714 -25.9862 6.57221 3.17005 31.61071 -108.64999 18.93389 -2.1488 25.53939 -3.29208 -13.24376 -21.23575 -5.92375 -3.07564 -3.69328 28.02252 5.1948 8.68222 -24.88896 -6.26796 2.31035 3.34981
0.0249 0.00321 -0.00882 25.74038 -13.75288 -4.50073 43.39552 -1.12971 -7.81745 -18.41948 6.12074 -1.14326 -22.77171 -8.26093 -16.413 20.82409 100.11165 10.55669 2.22362 -26.03046 6.60739 3.41696 31.33133 -109.34779 19.6569 -2.1627 24.96355 -3.29009 -13.02116 -21.14809 -6.01274 -3.1071 -3.7148 27.29525 5.09841 8.44471 -24.81525 -6.23827 2.34572 3.36734
0.02821 0.00356 -0.01026 25.92046 -13.21281 -4.45844 43.75867 -1.20618 -7.39507 -19.4787 6.48328 -1.13974 -22.22521 -8.79883 -15.52376 18.63727 99.50722 10.42801 2.10074 -26.10177 6.66701 3.64449 30.86075 -109.65729 20.30907 -2.09902 24.0974 -3.2556 -12.70712 -21.01505 -6.11524 -3.15617 -3.74586 26.28438 4.99131 8.11978 -24.7199 -6.19999 2.38504 3.38668
